<?xml version="1.0" encoding="utf-8"?>
<!-- Generator: Adobe Illustrator 26.0.1, SVG Export Plug-In . SVG Version: 6.00 Build 0)  -->
<svg version="1.1" id="Camada_1" xmlns="http://www.w3.org/2000/svg" xmlns:xlink="http://www.w3.org/1999/xlink" x="0px" y="0px"
	 viewBox="0 0 256 256" style="enable-background:new 0 0 256 256;" xml:space="preserve">
<style type="text/css">
	.st0{fill:#0A87DD;stroke:#FFFFFF;stroke-width:6;}
	.st1{fill:#FFFFFF;}
</style>
<circle class="st0" cx="128.7" cy="123.9" r="74.6"/>
<g>
	<path class="st1" d="M141.2,94.5h-39.4c-6.2,0-11.3,5-11.3,11.3v46.2c0,6.2,5,11.3,11.3,11.3h39.4c6.2,0,11.3-5,11.3-11.3v-46.2
		C152.5,99.5,147.5,94.5,141.2,94.5z M137.8,143.5h-32.4v-4.8h32.4V143.5z M137.8,131.2h-32.4v-4.7h32.4V131.2z M137.8,119h-32.4
		v-4.7h32.4V119z"/>
	<path class="st1" d="M147.7,82.3h-33.5c-4.7,0-8.5,3.4-9.2,7.9h36.5c8.5,0,15.3,6.9,15.3,15.3V151h0.5c5.2,0,9.4-4.2,9.4-9.4v-40.3
		C166.8,90.8,158.2,82.3,147.7,82.3z"/>
</g>
</svg>
