<?xml version="1.0" encoding="utf-8"?>
<!-- Generator: Adobe Illustrator 26.0.1, SVG Export Plug-In . SVG Version: 6.00 Build 0)  -->
<svg version="1.1" id="Camada_1" xmlns="http://www.w3.org/2000/svg" xmlns:xlink="http://www.w3.org/1999/xlink" x="0px" y="0px"
	 viewBox="0 0 102 102" style="enable-background:new 0 0 102 102;" xml:space="preserve">
<style type="text/css">
	.st0{fill:#FFFFFF;}
</style>
<g>
	<g>
		<path class="st0" d="M53,8.1c-13.2,0-23.9,10.1-23.9,22.5S38.6,49.4,53,65.4c13.7-16,23.9-22.4,23.9-34.8S66.2,8.1,53,8.1z
			 M53,39.8c-4.9,0-8.8-3.9-8.8-8.8s3.9-8.8,8.8-8.8c4.9,0,8.8,3.9,8.8,8.8C61.8,35.8,57.9,39.8,53,39.8z"/>
	</g>
	<g>
		<path class="st0" d="M88.3,28.4l-7.9-2.8c0.3,1.5,0.5,3,0.5,4.6l4.7,1.6v57L66.3,82V56.8c-0.2,0.2-0.3,0.3-0.5,0.5
			c-1.6,1.7-3.3,3.5-5,5.4V82l-19.3,6.8V58.6c0,0,0-0.1-0.1-0.1c-2-2.1-3.8-4-5.4-5.8v36.1L16.7,82V25l8.8,3.1
			c0.1-1.4,0.4-2.8,0.8-4.1l-11-3.9c-0.6-0.2-1.3-0.1-1.9,0.3c-0.5,0.4-0.9,1-0.9,1.7v61.4c0,0.9,0.6,1.7,1.4,2l23.5,8.3
			c0.2,0.1,0.5,0.1,0.7,0.1s0.5,0,0.7-0.1c0.2,0.1,0.5,0.1,0.7,0.1s0.5,0,0.7-0.1l23.5-8.3l0,0l0,0l23.5,8.3
			c0.2,0.1,0.5,0.1,0.7,0.1c0.4,0,0.8-0.1,1.2-0.4c0.5-0.4,0.9-1,0.9-1.7V30.4C89.7,29.5,89.1,28.7,88.3,28.4z"/>
	</g>
</g>
</svg>
