<?xml version="1.0" encoding="utf-8"?>
<!-- Generator: Adobe Illustrator 26.0.1, SVG Export Plug-In . SVG Version: 6.00 Build 0)  -->
<svg version="1.1" id="Camada_1" xmlns="http://www.w3.org/2000/svg" xmlns:xlink="http://www.w3.org/1999/xlink" x="0px" y="0px"
	 viewBox="0 0 256 256" style="enable-background:new 0 0 256 256;" xml:space="preserve">
<style type="text/css">
	.st0{fill:#FFFFFF;}
	.st1{fill:#0A87DD;stroke:#FFFFFF;stroke-width:6;}
	.st2{fill:none;stroke:#FFFFFF;stroke-width:5.233;stroke-miterlimit:10;}
	.st3{fill:none;stroke:#FFFFFF;stroke-width:5.3352;stroke-miterlimit:10;}
</style>
<g>
	<path class="st0" d="M141.2,94.5h-39.4c-6.2,0-11.3,5-11.3,11.3v46.2c0,6.2,5,11.3,11.3,11.3h39.4c6.2,0,11.3-5,11.3-11.3v-46.2
		C152.5,99.5,147.5,94.5,141.2,94.5z M137.8,143.5h-32.4v-4.8h32.4V143.5z M137.8,131.2h-32.4v-4.7h32.4V131.2z M137.8,119h-32.4
		v-4.7h32.4V119z"/>
	<path class="st0" d="M147.7,82.3h-33.5c-4.7,0-8.5,3.4-9.2,7.9h36.5c8.5,0,15.3,6.9,15.3,15.3V151h0.5c5.2,0,9.4-4.2,9.4-9.4v-40.3
		C166.8,90.8,158.2,82.3,147.7,82.3z"/>
</g>
<g>
	<circle class="st1" cx="128" cy="128" r="74.6"/>
	<g>
		<g>
			<path class="st0" d="M98.8,140.3v-11.8c0-0.7-0.4-1.4-1.1-1.7l-12.6-6.2c-1.3-0.6-2.8,0.3-2.8,1.7v25.7c0,1.5,1.6,2.4,2.9,1.6
				l12.6-7.7C98.4,141.5,98.8,140.9,98.8,140.3z"/>
			<path class="st0" d="M105.3,127.3H104c-1.1,0-1.9,0.9-1.9,1.9v10.2c0,1.1,0.9,1.9,1.9,1.9h1.3c1.1,0,1.9-0.9,1.9-1.9v-10.2
				C107.2,128.1,106.4,127.3,105.3,127.3z"/>
		</g>
		<circle class="st2" cx="154.8" cy="101.9" r="10.8"/>
		<circle class="st3" cx="124" cy="99.2" r="13.5"/>
		<path class="st0" d="M109.9,125.6v30.4c0,4.5,3.7,8.2,8.2,8.2h39.3c4.5,0,8.2-3.7,8.2-8.2v-30.4c0-4.5-3.7-8.2-8.2-8.2h-39.3
			C113.6,117.4,109.9,121.1,109.9,125.6z M119,134.7c0-3.9,3.2-7.1,7.1-7.1h23.4c3.9,0,7.1,3.2,7.1,7.1c0,3.9-3.2,7.1-7.1,7.1h-23.4
			C122.1,141.8,119,138.6,119,134.7z"/>
	</g>
</g>
</svg>
