<?xml version="1.0" encoding="utf-8"?>
<!-- Generator: Adobe Illustrator 26.0.1, SVG Export Plug-In . SVG Version: 6.00 Build 0)  -->
<svg version="1.1" id="Camada_1" xmlns="http://www.w3.org/2000/svg" xmlns:xlink="http://www.w3.org/1999/xlink" x="0px" y="0px"
	 viewBox="0 0 256 256" style="enable-background:new 0 0 256 256;" xml:space="preserve">
<style type="text/css">
	.st0{fill:#FFFFFF;}
	.st1{fill:#0A87DD;stroke:#FFFFFF;stroke-width:6;}
</style>
<g>
	<path class="st0" d="M141.2,94.5h-39.4c-6.2,0-11.3,5-11.3,11.3v46.2c0,6.2,5,11.3,11.3,11.3h39.4c6.2,0,11.3-5,11.3-11.3v-46.2
		C152.5,99.5,147.5,94.5,141.2,94.5z M137.8,143.5h-32.4v-4.8h32.4V143.5z M137.8,131.2h-32.4v-4.7h32.4V131.2z M137.8,119h-32.4
		v-4.7h32.4V119z"/>
	<path class="st0" d="M147.7,82.3h-33.5c-4.7,0-8.5,3.4-9.2,7.9h36.5c8.5,0,15.3,6.9,15.3,15.3V151h0.5c5.2,0,9.4-4.2,9.4-9.4v-40.3
		C166.8,90.8,158.2,82.3,147.7,82.3z"/>
</g>
<circle class="st1" cx="128" cy="128" r="74.6"/>
<g>
	<path class="st0" d="M128,109.6c-10.2,0-18.4,8.3-18.4,18.4c0,10.2,8.3,18.4,18.4,18.4c10.2,0,18.4-8.3,18.4-18.4
		C146.4,117.8,138.2,109.6,128,109.6z M128,139.9c-6.5,0-11.9-5.3-11.9-11.9c0-6.5,5.3-11.9,11.9-11.9c6.5,0,11.9,5.3,11.9,11.9
		C139.9,134.5,134.5,139.9,128,139.9z"/>
	<path class="st0" d="M171.2,123.3l-0.2-2.1l0,0l0-0.1l-7.9-2.3c-0.1-0.6-0.4-1.1-0.6-1.7c-0.2-0.8-0.4-1.5-0.7-2.3l1.2-1.6
		c0,0,0,0-0.1-0.1l3.8-5l-1.1-1.9c-0.8-1.4-1.7-2.7-2.6-4c-0.9-1.2-1.9-2.4-3-3.6l-1.4-1.6l-7.7,2.8c-1.1-0.9-2.2-1.7-3.4-2.4
		l0.2-8.2l-2-0.9c-2.9-1.3-6-2.3-9-2.9l-2.1-0.4l-3.8,5.6c0,0,0,0-0.1,0l-0.9,1.3c-1.4-0.1-2.7-0.1-4.2,0l-4.6-6.8l-2.1,0.4
		c-1.5,0.3-3.1,0.7-4.6,1.2c-1.5,0.5-3,1.1-4.5,1.7l-2,0.9l0.2,8.2c-1.2,0.8-2.3,1.5-3.4,2.5l-7.7-2.7l-0.1,0.1l0,0l-1.4,1.6
		c-1.9,2.1-3.7,4.6-5.2,7.2c-0.1,0.1-0.1,0.2-0.2,0.3l0,0c0,0,0,0,0,0.1l-0.3,0.6l-0.7,1.2l0,0l-0.1,0.1l5,6.5
		c-0.5,1.3-1,2.6-1.3,3.9l-7.9,2.3l-0.2,2.1c-0.2,1.6-0.3,3.2-0.3,4.7c0,1.5,0.1,3.1,0.3,4.7l0.2,2.1l0,0l0,0.1l7.9,2.3
		c0.2,0.7,0.5,1.5,0.7,2.2c0.2,0.6,0.3,1.2,0.6,1.8l-5,6.5l0.1,0.1l0,0l1.1,1.9c0.8,1.4,1.7,2.7,2.6,4c0.9,1.2,1.9,2.4,3,3.6
		l1.5,1.6l7.7-2.8c1,0.8,2.1,1.6,3.2,2.3c0,0,0.1,0.1,0.1,0.1l-0.2,8.2l0.1,0v0l1.1,0.5l0.8,0.4c0,0,0,0,0,0l0.1,0
		c0.1,0.1,0.3,0.1,0.4,0.2c2.8,1.2,5.6,2.2,8.4,2.7l2.1,0.4l0,0l0.1,0l4.6-6.8c1.4,0.1,2.7,0.1,4.2,0l4.6,6.8l2.1-0.4
		c1.5-0.3,3.1-0.7,4.6-1.3c1.5-0.5,3-1.1,4.4-1.7l2-0.9l-0.2-8.2c1.2-0.8,2.3-1.5,3.4-2.4l7.7,2.7l0.1-0.1l0.1,0l1.4-1.6
		c1.9-2.1,3.6-4.5,5.1-7c0.1-0.2,0.2-0.3,0.3-0.5l0.1-0.1c0,0,0,0,0,0l0.2-0.4l0.8-1.4v0l0.1-0.1l-5-6.5c0,0,0-0.1,0-0.1
		c0.5-1.3,0.9-2.5,1.3-3.8l7.9-2.3l0.2-2.1c0.2-1.6,0.3-3.2,0.3-4.7C171.5,126.5,171.4,124.9,171.2,123.3z M128,150.7
		c-12.5,0-22.7-10.2-22.7-22.7s10.2-22.7,22.7-22.7c12.5,0,22.7,10.2,22.7,22.7S140.5,150.7,128,150.7z"/>
</g>
</svg>
