<svg width="125" height="25" viewBox="0 0 280 56" fill="none" xmlns="http://www.w3.org/2000/svg">
<path d="M146.518 13.8157C138.37 13.8157 131.963 20.0788 131.963 27.9999C131.963 35.9209 138.37 42.1841 146.518 42.1841C154.667 42.1841 161.074 35.9209 161.074 27.9999C161.074 20.0788 154.667 13.8157 146.518 13.8157ZM146.518 37.1736C141.481 37.1736 137.518 33.1946 137.518 27.9999C137.518 22.7683 141.37 18.8262 146.518 18.8262C151.556 18.8262 155.518 22.8052 155.518 27.9999C155.518 33.2315 151.667 37.1736 146.518 37.1736Z" fill="white"/>
<path d="M122.111 31.8683H127.815C126.556 37.4683 121.704 42.1841 114.445 42.1841C106.037 42.1841 100.148 35.8841 100.148 28.0367C100.148 20.1525 106.148 13.8157 114.704 13.8157C122.445 13.8157 126.704 18.8999 127.667 24.0946H122.037C121.185 21.1104 118.63 18.8262 114.519 18.8262C109.334 18.8262 105.667 22.7315 105.667 27.9999C105.667 33.3052 109.371 37.1736 114.593 37.1736C118.482 37.1736 121.111 35.0736 122.111 31.8683Z" fill="white"/>
<path d="M242.37 14.4788V17.9788C240.37 15.3999 237.333 13.8157 233.407 13.8157C225.629 13.8157 219.666 19.9315 219.666 27.9999C219.666 36.0683 225.629 42.1841 233.444 42.1841C237.37 42.1841 240.37 40.5999 242.407 38.0209V41.5209H247.851V14.4788H242.37ZM233.666 37.3209C228.814 37.3209 225.185 33.3052 225.185 27.9999C225.185 22.6946 228.814 18.6788 233.666 18.6788C238.555 18.6788 242.222 22.6946 242.222 27.9999C242.259 33.3052 238.555 37.3209 233.666 37.3209Z" fill="white"/>
<path d="M279.999 25.4211V41.8159H274.443V26.6001C274.443 21.9948 272.073 19.2685 268.184 19.2685C263.443 19.2685 260.073 22.5843 260.073 29.1053V41.8527H254.518V14.8475H259.962V18.6053C262.147 15.5843 265.073 14.1843 268.999 14.1843C275.777 14.1475 279.999 18.9369 279.999 25.4211Z" fill="white"/>
<path d="M215.629 33.5631C215.629 39.0525 210.962 42.1841 204.221 42.1841C197.518 42.1841 193.369 38.8683 192.518 33.5631H197.999C198.851 36.2157 200.74 37.5789 204.295 37.5789C208.073 37.5789 210.073 36.2157 210.073 34.042C210.073 32.3841 209.036 31.3894 206.481 30.8736L200.629 29.6946C195.851 28.6999 193.11 26.0473 193.11 22.142C193.11 17.4262 197.666 13.8525 204.332 13.8525C211.555 13.8525 214.925 17.7946 215.444 22.2525H210.036C209.444 20.042 207.703 18.421 204.221 18.421C200.518 18.421 198.814 19.9315 198.814 21.7736C198.814 23.2841 199.74 24.3157 202.295 24.8315L208.629 26.1946C213.073 27.1157 215.629 29.6946 215.629 33.5631Z" fill="white"/>
<path d="M182.408 31.3895L182.482 31.3527C186.334 30.1737 188.704 27.2632 188.704 23.4316C188.704 18.679 185 14.479 178.519 14.479H166.223V41.4843H171.704V32.3843H176.926L183 41.4843H189.334L182.408 31.3895ZM178.741 27.5948H171.741V19.3422H178.741C181.963 19.3422 183.408 21.258 183.408 23.4685C183.445 25.7895 181.741 27.5948 178.741 27.5948Z" fill="white"/>
<path d="M14.5547 14.479H79.5176C79.5176 17.7211 76.851 20.3737 73.5917 20.3737H20.4806V35.5895H73.5917C76.851 35.5895 79.5176 38.2422 79.5176 41.4843H14.5547V14.479Z" fill="white"/>
<path d="M80 50.1053V56H14.8148C6.62963 56 0 49.4053 0 41.2632V14.7368C0 6.59474 6.62963 0 14.8148 0H80V5.89474H14.8148C9.92593 5.89474 5.92593 9.83684 5.92593 14.7368V41.2632C5.92593 46.1632 9.92593 50.1053 14.8148 50.1053H80Z" fill="white"/>
</svg>
