<?xml version="1.0" encoding="UTF-8" standalone="no"?>
<!-- Created with Inkscape (http://www.inkscape.org/) -->

<svg
   width="150"
   height="150"
   viewBox="0 0 39.687499 39.687501"
   version="1.1"
   id="svg5"
   inkscape:version="1.1 (c68e22c387, 2021-05-23)"
   sodipodi:docname="video.svg"
   xmlns:inkscape="http://www.inkscape.org/namespaces/inkscape"
   xmlns:sodipodi="http://sodipodi.sourceforge.net/DTD/sodipodi-0.dtd"
   xmlns="http://www.w3.org/2000/svg"
   xmlns:svg="http://www.w3.org/2000/svg">
  <sodipodi:namedview
     id="namedview7"
     pagecolor="#ffffff"
     bordercolor="#666666"
     borderopacity="1.0"
     inkscape:pageshadow="2"
     inkscape:pageopacity="0.0"
     inkscape:pagecheckerboard="0"
     inkscape:document-units="px"
     showgrid="false"
     units="px"
     width="150px"
     inkscape:zoom="3.0003928"
     inkscape:cx="130.64956"
     inkscape:cy="131.81607"
     inkscape:window-width="1920"
     inkscape:window-height="1027"
     inkscape:window-x="-8"
     inkscape:window-y="-8"
     inkscape:window-maximized="1"
     inkscape:current-layer="layer1" />
  <defs
     id="defs2">
    <linearGradient
       id="linearGradient1238"
       inkscape:swatch="solid">
      <stop
         style="stop-color:#ff0000;stop-opacity:1;"
         offset="0"
         id="stop1236" />
    </linearGradient>
  </defs>
  <g
     inkscape:label="Camada 1"
     inkscape:groupmode="layer"
     id="layer1">
    <path
       style="fill:#ffffff;stroke:#060800;stroke-width:0.0484654;stroke-miterlimit:4;stroke-dasharray:none;stroke-opacity:1"
       d="M 10.793953,34.318676 C 10.01509,34.134119 9.3807024,33.643455 8.9979313,32.929553 8.8479034,32.649737 8.8398454,32.521327 8.8045395,29.847545 l -0.03684,-2.790027 -1.3446953,-0.01768 -1.3446961,-0.01767 V 24.65535 22.288537 h 1.2114045 c 1.270959,0 1.6677733,-0.08474 0.7593322,-0.162143 C 6.6557407,22.00767 5.2930475,21.569563 4.1625735,20.876894 3.1779713,20.273602 2.0907818,19.151256 1.5096951,18.138229 1.2447136,17.676281 0.91620627,16.78471 0.80358382,16.221847 0.66979926,15.553221 0.67046354,14.227067 0.80491398,13.554295 1.3629076,10.762299 3.6948438,8.5385799 6.8380772,7.8011094 7.350877,7.6807947 7.6349243,7.6598128 8.7308556,7.6612918 c 1.1048106,0.00148 1.3738344,0.022471 1.8788914,0.1465228 1.263745,0.3104031 2.295207,0.7728888 3.163166,1.4182942 0.159265,0.1184272 0.329054,0.2153215 0.377313,0.2153215 0.05318,0 0.107427,-0.159742 0.137715,-0.4055271 0.02747,-0.2230404 0.119922,-0.6391114 0.205421,-0.9246028 0.619818,-2.0696299 2.186144,-3.7743299 4.295081,-4.6745278 3.070612,-1.3106844 6.677002,-0.7922682 9.047277,1.3005407 3.070911,2.711426 3.320597,6.9638677 0.583778,9.9424877 l -0.252414,0.274716 0.210531,0.06929 c 0.838202,0.275849 1.336481,0.660309 1.677807,1.294547 l 0.22741,0.42257 0.02324,1.541003 c 0.01277,0.847553 0.0505,1.541005 0.08383,1.541005 0.06287,0 2.901391,-2.525757 5.369084,-4.777482 0.07529,-0.0687 0.396726,-0.08885 1.418379,-0.08885 h 1.321009 v 9.732656 9.732654 h -1.313889 -1.313884 l -0.618648,-0.56774 c -2.464119,-2.261349 -4.8194,-4.352363 -4.870873,-4.32435 -0.03377,0.01837 -0.06142,0.662258 -0.06142,1.430841 0,1.561982 -0.06032,1.873525 -0.465484,2.404324 -0.273246,0.357974 -0.831093,0.74771 -1.302884,0.910251 -0.308944,0.106437 -0.912243,0.115092 -8.841837,0.126856 -7.313544,0.01084 -8.567255,-0.001 -8.915519,-0.0834 z m 6.881307,-2.286171 c 0.02067,-0.02946 -0.681954,-0.703704 -1.561391,-1.498338 -0.879438,-0.794633 -1.665291,-1.551582 -1.746342,-1.682107 -0.141925,-0.228559 -0.148126,-0.378079 -0.16804,-4.05118 -0.01372,-2.532402 0.0055,-3.899432 0.0572,-4.068542 0.09251,-0.302563 0.371525,-0.611914 0.690656,-0.765768 0.210557,-0.101511 0.613294,-0.111217 4.614766,-0.111217 3.995883,0 4.404434,0.0098 4.613966,0.110853 0.126439,0.06098 0.96529,0.775707 1.864113,1.588306 1.284714,1.161476 1.648958,1.456933 1.703133,1.381487 0.03918,-0.05458 0.0694,-1.039612 0.07006,-2.28338 0.0011,-2.030998 -0.0094,-2.212249 -0.146451,-2.534749 -0.08116,-0.191036 -0.238662,-0.42106 -0.34999,-0.511163 -0.445209,-0.360333 -0.138017,-0.346727 -7.828493,-0.346727 h -7.11032 l -0.305229,0.174842 c -0.167878,0.09616 -0.383396,0.271352 -0.478934,0.389307 l -0.173703,0.214461 -0.01945,6.571005 c -0.01664,5.619977 -0.0041,6.597189 0.08679,6.751918 0.156189,0.265977 0.558946,0.590158 0.81453,0.655623 0.28407,0.07276 5.322757,0.08718 5.373151,0.01536 z m 4.669209,-7.360269 0.01927,-2.51505 -2.782363,0.01701 -2.782358,0.017 -0.01934,2.432931 c -0.01062,1.338116 -0.0033,2.469892 0.01644,2.515062 0.02817,0.06463 0.620629,0.0785 2.78241,0.06511 l 2.746621,-0.01703 z m 13.557088,-2.417904 c 0.01204,-3.096544 -0.0072,-4.88023 -0.05305,-4.920621 -0.04681,-0.04122 -0.547987,0.365573 -1.434377,1.164259 l -1.362427,1.227613 9.18e-4,2.498049 9.17e-4,2.498048 1.340896,1.216608 c 0.73749,0.669136 1.374089,1.206867 1.414665,1.194958 0.04813,-0.01413 0.08033,-1.709249 0.09267,-4.878914 z M 8.8045395,18.558901 c 0,-1.427435 0.073538,-1.266057 -0.6222287,-1.365379 C 7.4552662,17.089737 6.7112131,16.552368 6.3438998,15.865785 6.1462368,15.496314 6.1180424,15.373919 6.1195188,14.8917 c 0.00352,-1.137564 0.7036265,-1.978272 1.9175837,-2.302564 0.4974189,-0.13288 0.9116512,-0.12233 1.4483588,0.03689 0.9749067,0.289208 1.5710707,0.885258 1.7882417,1.787898 0.05893,0.244936 0.107723,0.467235 0.108426,0.494001 6.62e-4,0.02676 0.631258,0.04867 1.401236,0.04867 h 1.399958 v -0.41137 c 0,-0.799862 -0.430656,-1.868375 -1.053152,-2.613012 C 12.321903,10.965342 11.319608,10.35402 10.044655,10.050279 9.4069112,9.8983434 8.0481476,9.8954937 7.4045812,10.04476 4.640267,10.685813 2.8171977,13.172899 3.2848481,15.66502 c 0.1376591,0.733592 0.4992914,1.534988 0.9539739,2.114056 0.9114639,1.160813 2.6443948,2.021304 4.1052053,2.038452 l 0.4605122,0.0055 z m 15.0685715,-3.83087 c 2.07349,-0.59334 3.475864,-2.068536 3.835059,-4.034206 C 27.950805,9.3660127 27.513968,7.9390157 26.52586,6.8316449 25.866131,6.0922862 24.810359,5.4696803 23.725139,5.1800134 23.388404,5.0901317 23.037212,5.0619751 22.251501,5.0618641 c -0.883642,-1.237e-4 -1.104756,0.021448 -1.542111,0.1504586 -1.881517,0.5550072 -3.236843,1.8191659 -3.772909,3.5191156 -0.09879,0.313255 -0.130204,0.6374845 -0.125394,1.2939347 0.0057,0.783883 0.02913,0.937307 0.222489,1.459896 0.521694,1.409931 1.557753,2.438724 3.072163,3.050621 0.288617,0.116616 0.70712,0.244093 0.930009,0.28328 0.222888,0.03919 0.471564,0.0848 0.552614,0.101361 0.08105,0.01658 0.495784,0.01792 0.921632,0.0031 0.568826,-0.01987 0.930515,-0.07176 1.363117,-0.195555 z"
       id="path988" />
    <path
       style="fill:#ffffff;stroke:#060800;stroke-width:0.0484654;stroke-miterlimit:4;stroke-dasharray:none;stroke-opacity:1"
       d="m 21.588362,12.27023 c -0.477078,-0.133212 -0.865736,-0.335317 -1.155813,-0.60103 -1.596393,-1.462309 -0.585247,-3.9028433 1.6698,-4.0302841 0.963974,-0.054478 1.784731,0.3034454 2.327592,1.015039 0.810809,1.0628228 0.483659,2.5991541 -0.700961,3.2917831 -0.65197,0.3812 -1.485196,0.507506 -2.140618,0.324492 z"
       id="path1027" />
  </g>
</svg>
